# xmcd
#
# Track frame offsets:
# 150
# 11211
# 25808
# 43989
# 56575
# 71733
# 86420
# 98846
# 113538
# 130935
# 153935
# 167743
# 186462
# 203567
# 216549
# 234982
# 246756
#
# Disc length: 3588 seconds
#
#
# Revision: 0
# Processed by: cddbd v1.5.2PL0 Copyright (c) Steve Scherf et al.
# Submitted via: FreeRIP 2.942 
#
DISCID=eb0e0211
DTITLE=LOVE CLASSICS OF THE 70's
DYEAR=1900
DGENRE=
TTITLE0=JIM CROCE - TIME IN A BOTTLE
TTITLE1=GUYS and DOLLS -  THERE'S A WHOLE LOT OF LOVING
TTITLE2=DAVID SOUL - GOING IN WITH MY EYES OPEN
TTITLE3=RAY STEVENS - MISTY
TTITLE4=KEN BOOTHE - EVERYTHING I OWN
TTITLE5=WORLDS GREATEST LOVE BAND - DUST IN THE WIND
TTITLE6=BYRON LEE and MIGHTY SPARROW - ONLY A FOOL
TTITLE7=BLUE HAZE - SMOKE GETS IN YOUR EYES
TTITLE8=SANDRA REEMER - ALL OUT OF LOVE
TTITLE9=KAYAK - RUTHLESS QUEEN
TTITLE10=BARRY and EILEEN - IF YOU GO
TTITLE11=DOUG ASHDOWN - WINTER IN AMERICA
TTITLE12=WORLDS GREATEST LOVE BAND - LOVE HURTS
TTITLE13=TYRONE DAVIS - TURN BACK THE HANDS OF TIME
TTITLE14=ROKOTTO - SHE'S A WOMAN
TTITLE15=THE PLATTERS - ONLY YOU
TTITLE16=NEIL SEDAKA - SOLITAIRE (LIVE)
EXTD=
EXTT0=
EXTT1=
EXTT2=
EXTT3=
EXTT4=
EXTT5=
EXTT6=
EXTT7=
EXTT8=
EXTT9=
EXTT10=
EXTT11=
EXTT12=
EXTT13=
EXTT14=
EXTT15=
EXTT16=
PLAYORDER=
